<?xml version="1.0" encoding="utf-8"?>
<!-- Generator: Adobe Illustrator 27.5.0, SVG Export Plug-In . SVG Version: 6.00 Build 0)  -->
<svg version="1.1" xmlns="http://www.w3.org/2000/svg" xmlns:xlink="http://www.w3.org/1999/xlink" x="0px" y="0px"
	 viewBox="0 0 776.8 169.1" style="enable-background:new 0 0 776.8 169.1;" xml:space="preserve">
<style type="text/css">
	.st0{fill:#51BAE8;}
</style>
<g id="Capa_1">
	<path class="st0" d="M0,101.2c28.8,0,43.5,13.4,56.4,25.3c11.8,10.7,21,19.2,40.8,19.2s29-8.5,40.7-19.2
		c12.9-11.8,27.6-25.3,56.4-25.3s43.5,13.4,56.4,25.3c11.7,10.7,20.9,19.2,40.7,19.2s29-8.5,40.7-19.2
		c12.9-11.8,27.6-25.3,56.4-25.3s43.5,13.4,56.4,25.3c11.7,10.7,20.9,19.2,40.7,19.2c19.8,0,29-8.5,40.6-19.2
		c12.9-11.9,27.6-25.3,56.4-25.3s43.5,13.4,56.4,25.3c11.7,10.7,20.9,19.2,40.7,19.2s29-8.5,40.7-19.2
		c12.9-11.8,27.6-25.3,56.4-25.3v23.4c-19.7,0-29,8.5-40.7,19.2c-12.9,11.9-27.6,25.3-56.4,25.3s-43.5-13.4-56.4-25.3
		c-11.7-10.7-20.9-19.2-40.7-19.2s-29,8.5-40.6,19.2c-12.9,11.9-27.6,25.3-56.4,25.3s-43.5-13.4-56.4-25.3
		c-11.7-10.7-20.9-19.2-40.7-19.2s-29,8.5-40.7,19.2c-12.9,11.9-27.6,25.3-56.4,25.3s-43.5-13.4-56.4-25.3
		c-11.7-10.7-20.9-19.2-40.7-19.2s-29,8.5-40.7,19.2c-12.9,11.8-27.6,25.3-56.4,25.3c-28.8-0.1-43.5-13.5-56.5-25.3
		C29,133.1,19.8,124.6,0,124.6"/>
	<path class="st0" d="M776.8,101.2c28.8,0,43.5,13.4,56.4,25.3c11.8,10.7,21,19.2,40.8,19.2s29-8.5,40.7-19.2
		c12.9-11.8,27.6-25.3,56.4-25.3s43.5,13.4,56.4,25.3c11.7,10.7,20.9,19.2,40.7,19.2s29-8.5,40.7-19.2
		c12.9-11.8,27.6-25.3,56.4-25.3c28.8,0,43.5,13.4,56.4,25.3c11.7,10.7,20.9,19.2,40.7,19.2c19.8,0,29-8.5,40.6-19.2
		c12.9-11.9,27.6-25.3,56.4-25.3s43.5,13.4,56.4,25.3c11.7,10.7,20.9,19.2,40.7,19.2c19.8,0,29-8.5,40.7-19.2
		c12.9-11.8,27.6-25.3,56.4-25.3v23.4c-19.7,0-29,8.5-40.7,19.2c-12.9,11.9-27.6,25.3-56.4,25.3s-43.5-13.4-56.4-25.3
		c-11.7-10.7-20.9-19.2-40.7-19.2s-29,8.5-40.6,19.2c-12.9,11.9-27.6,25.3-56.4,25.3c-28.8,0-43.5-13.4-56.4-25.3
		c-11.7-10.7-20.9-19.2-40.7-19.2s-29,8.5-40.7,19.2c-12.9,11.9-27.6,25.3-56.4,25.3c-28.8,0-43.5-13.4-56.4-25.3
		c-11.7-10.7-20.9-19.2-40.7-19.2s-29,8.5-40.7,19.2c-12.9,11.8-27.6,25.3-56.4,25.3c-28.8-0.1-43.5-13.5-56.5-25.3
		c-11.7-10.7-20.9-19.2-40.7-19.2"/>
</g>
<g id="Layer_1">
</g>
</svg>
