<?xml version="1.0" encoding="UTF-8"?>
<svg id="Capa_1" data-name="Capa 1" xmlns="http://www.w3.org/2000/svg" viewBox="0 0 788.5 169.1">
  <defs>
    <style>
      .cls-1 {
        fill: #51bae8;
      }
    </style>
  </defs>
  <path class="cls-1" d="m788.5,23.4c-19.7,0-29,8.5-40.7,19.2-12.9,11.9-27.6,25.3-56.4,25.3s-43.5-13.4-56.4-25.3c-11.7-10.7-20.9-19.2-40.7-19.2s-29,8.5-40.6,19.2c-12.9,11.9-27.6,25.3-56.4,25.3s-43.5-13.4-56.4-25.3c-11.7-10.7-20.9-19.2-40.7-19.2s-29,8.5-40.7,19.2c-12.9,11.9-27.6,25.3-56.4,25.3s-43.5-13.4-56.4-25.3c-11.7-10.7-20.9-19.2-40.7-19.2s-29,8.5-40.7,19.2c-12.9,11.8-27.6,25.3-56.4,25.3-28.8-.1-43.5-13.5-56.5-25.4-11.7-10.7-20.9-19.2-40.7-19.2C5.3,23.4.1,18.2.1,11.7S5.3,0,11.8,0c28.8,0,43.5,13.4,56.4,25.3,11.7,10.7,20.9,19.2,40.7,19.2s29-8.5,40.7-19.2C162.5,13.5,177.2,0,206,0s43.5,13.4,56.4,25.3c11.7,10.7,20.9,19.2,40.7,19.2s29-8.5,40.7-19.2c12.9-11.8,27.6-25.3,56.4-25.3s43.5,13.4,56.4,25.3c11.7,10.7,20.9,19.2,40.7,19.2s29-8.5,40.6-19.2c12.9-11.9,27.6-25.3,56.4-25.3s43.5,13.4,56.4,25.3c11.7,10.7,20.9,19.2,40.7,19.2s29-8.5,40.7-19.2c12.9-11.8,27.6-25.3,56.4-25.3"/>
  <path class="cls-1" d="m788.5,124.6c-19.7,0-29,8.5-40.7,19.2-12.9,11.9-27.6,25.3-56.4,25.3s-43.5-13.4-56.4-25.3c-11.7-10.7-20.9-19.2-40.7-19.2s-29,8.5-40.6,19.2c-12.9,11.9-27.6,25.3-56.4,25.3s-43.5-13.4-56.4-25.3c-11.7-10.7-20.9-19.2-40.7-19.2s-29,8.5-40.7,19.2c-12.9,11.9-27.6,25.3-56.4,25.3s-43.5-13.4-56.4-25.3c-11.7-10.7-20.9-19.2-40.7-19.2s-29,8.5-40.7,19.2c-12.9,11.8-27.6,25.3-56.4,25.3-28.8-.1-43.5-13.5-56.5-25.3-11.7-10.7-20.9-19.2-40.7-19.2-6.4,0-11.7-5.2-11.7-11.7s5.2-11.7,11.7-11.7c28.8,0,43.5,13.4,56.4,25.3,11.8,10.7,21,19.2,40.8,19.2s29-8.5,40.7-19.2c12.9-11.8,27.6-25.3,56.4-25.3s43.5,13.4,56.4,25.3c11.7,10.7,20.9,19.2,40.7,19.2s29-8.5,40.7-19.2c12.9-11.8,27.6-25.3,56.4-25.3s43.5,13.4,56.4,25.3c11.7,10.7,20.9,19.2,40.7,19.2s29-8.5,40.6-19.2c12.9-11.9,27.6-25.3,56.4-25.3s43.5,13.4,56.4,25.3c11.7,10.7,20.9,19.2,40.7,19.2s29-8.5,40.7-19.2c12.9-11.8,27.6-25.3,56.4-25.3"/>
</svg>